<svg id="visual" viewBox="0 0 960 150" width="960" height="150" xmlns="http://www.w3.org/2000/svg" xmlns:xlink="http://www.w3.org/1999/xlink" version="1.1"><rect x="0" y="0" width="960" height="150" fill="#ffffff"></rect><path d="M0 56L10.7 54.2C21.3 52.3 42.7 48.7 64 44.8C85.3 41 106.7 37 128 40.8C149.3 44.7 170.7 56.3 192 59.8C213.3 63.3 234.7 58.7 256 55.2C277.3 51.7 298.7 49.3 320 47C341.3 44.7 362.7 42.3 384 42C405.3 41.7 426.7 43.3 448 44.2C469.3 45 490.7 45 512 42.2C533.3 39.3 554.7 33.7 576 36C597.3 38.3 618.7 48.7 640 48.7C661.3 48.7 682.7 38.3 704 40.7C725.3 43 746.7 58 768 64.5C789.3 71 810.7 69 832 69.5C853.3 70 874.7 73 896 72.7C917.3 72.3 938.7 68.7 949.3 66.8L960 65L960 151L949.3 151C938.7 151 917.3 151 896 151C874.7 151 853.3 151 832 151C810.7 151 789.3 151 768 151C746.7 151 725.3 151 704 151C682.7 151 661.3 151 640 151C618.7 151 597.3 151 576 151C554.7 151 533.3 151 512 151C490.7 151 469.3 151 448 151C426.7 151 405.3 151 384 151C362.7 151 341.3 151 320 151C298.7 151 277.3 151 256 151C234.7 151 213.3 151 192 151C170.7 151 149.3 151 128 151C106.7 151 85.3 151 64 151C42.7 151 21.3 151 10.7 151L0 151Z" fill="#d8ebff"></path><path d="M0 80L10.7 79.5C21.3 79 42.7 78 64 79.5C85.3 81 106.7 85 128 83.3C149.3 81.7 170.7 74.3 192 72.8C213.3 71.3 234.7 75.7 256 79C277.3 82.3 298.7 84.7 320 87.7C341.3 90.7 362.7 94.3 384 95C405.3 95.7 426.7 93.3 448 93.5C469.3 93.7 490.7 96.3 512 96.3C533.3 96.3 554.7 93.7 576 89.7C597.3 85.7 618.7 80.3 640 82.2C661.3 84 682.7 93 704 97C725.3 101 746.7 100 768 98.7C789.3 97.3 810.7 95.7 832 90.8C853.3 86 874.7 78 896 73.3C917.3 68.7 938.7 67.3 949.3 66.7L960 66L960 151L949.3 151C938.7 151 917.3 151 896 151C874.7 151 853.3 151 832 151C810.7 151 789.3 151 768 151C746.7 151 725.3 151 704 151C682.7 151 661.3 151 640 151C618.7 151 597.3 151 576 151C554.7 151 533.3 151 512 151C490.7 151 469.3 151 448 151C426.7 151 405.3 151 384 151C362.7 151 341.3 151 320 151C298.7 151 277.3 151 256 151C234.7 151 213.3 151 192 151C170.7 151 149.3 151 128 151C106.7 151 85.3 151 64 151C42.7 151 21.3 151 10.7 151L0 151Z" fill="#85afe0"></path><path d="M0 107L10.7 109.2C21.3 111.3 42.7 115.7 64 116C85.3 116.3 106.7 112.7 128 109.5C149.3 106.3 170.7 103.7 192 104C213.3 104.3 234.7 107.7 256 111.2C277.3 114.7 298.7 118.3 320 116.8C341.3 115.3 362.7 108.7 384 108C405.3 107.3 426.7 112.7 448 114.5C469.3 116.3 490.7 114.7 512 112.3C533.3 110 554.7 107 576 108.2C597.3 109.3 618.7 114.7 640 112.8C661.3 111 682.7 102 704 98C725.3 94 746.7 95 768 96.3C789.3 97.7 810.7 99.3 832 100.2C853.3 101 874.7 101 896 104.2C917.3 107.3 938.7 113.7 949.3 116.8L960 120L960 151L949.3 151C938.7 151 917.3 151 896 151C874.7 151 853.3 151 832 151C810.7 151 789.3 151 768 151C746.7 151 725.3 151 704 151C682.7 151 661.3 151 640 151C618.7 151 597.3 151 576 151C554.7 151 533.3 151 512 151C490.7 151 469.3 151 448 151C426.7 151 405.3 151 384 151C362.7 151 341.3 151 320 151C298.7 151 277.3 151 256 151C234.7 151 213.3 151 192 151C170.7 151 149.3 151 128 151C106.7 151 85.3 151 64 151C42.7 151 21.3 151 10.7 151L0 151Z" fill="#2b74c1"></path></svg>